<svg height="512" viewBox="0 0 512 512" width="512" xmlns="http://www.w3.org/2000/svg"><g id="Flat"><path d="m328 328h160v160h-160z" fill="#2f4054"/><path d="m400 440h-48a88 88 0 0 1 -88-88v-80h64v72a32 32 0 0 0 32 32h40a32 32 0 0 1 32 32 32 32 0 0 1 -32 32z" fill="#c9d9e5"/><path d="m256 192h80a0 0 0 0 1 0 0v80a40 40 0 0 1 -40 40 40 40 0 0 1 -40-40v-80a0 0 0 0 1 0 0z" fill="#abb7c1"/><circle cx="296" cy="272" fill="#2f4054" r="16"/><path d="m56 280 216-128v-96l-32-32-216 128 32 32z" fill="#808898"/><path d="m56 152h144v128h-144z" fill="#262d43"/><circle cx="112" cy="216" fill="#37a3c8" r="64"/><circle cx="136" cy="216" fill="#2d80b8" r="40"/><circle cx="152" cy="216" fill="#8fd1ec" r="24"/><path d="m112 288a72 72 0 1 1 72-72 72.08124 72.08124 0 0 1 -72 72zm0-128a56 56 0 1 0 56 56 56.06353 56.06353 0 0 0 -56-56z" fill="#2f4054"/><path d="m200 280 208-128v-96l-32-32-208 128 32 32z" fill="#808898"/><path d="m200 184 208-128-32-32-208 128z" fill="#abb7c1"/><path d="m24 152h144l208-128h-136z" fill="#d8e6ee"/></g></svg>