<svg xmlns="http://www.w3.org/2000/svg" width="77.098" height="77.088" viewBox="0 0 77.098 77.088">
  <g id="noun_Error_3451518" transform="translate(-3.502 -3.755)">
    <path id="Path_48960" data-name="Path 48960" d="M79.745,69.322,49.172,8.131a7.983,7.983,0,0,0-14.243,0L4.356,69.322a7.938,7.938,0,0,0,7.076,11.521H72.669a7.938,7.938,0,0,0,7.076-11.521Zm-37.694-.953a4.536,4.536,0,1,1,4.536-4.536A4.536,4.536,0,0,1,42.051,68.369Zm4.536-22.68a4.536,4.536,0,0,1-9.072,0V32.081a4.536,4.536,0,0,1,9.072,0Z" transform="translate(0 0)" fill="#ff3b30"/>
  </g>
</svg>
