<svg id="Layer_1" enable-background="new 0 0 512 512" height="512" viewBox="0 0 512 512" width="512" xmlns="http://www.w3.org/2000/svg"><g><g><path d="m339.22 254.977v162.156c0 19.216-15.63 34.85-34.84 34.85-2.57 0-5.08-.28-7.5-.81-15.62-3.441-27.34-17.395-27.34-34.04 0-19.225 15.63-34.86 34.84-34.86 7.37 0 14.21 2.301 19.84 6.222v-93.397l-84 25.457v126.586c0 19.216-15.63 34.85-34.84 34.85s-34.84-15.634-34.84-34.85c0-19.225 15.63-34.86 34.84-34.86 7.37 0 14.21 2.301 19.84 6.222v-133.518c0-3.311 2.17-6.222 5.33-7.182l91.77-27.818 7.23-2.191c2.27-.69 4.74-.26 6.64 1.16 1.91 1.411 3.03 3.642 3.03 6.023z" fill="#997ab8"/><path d="m339.22 254.977v162.156c0 19.216-15.63 34.85-34.84 34.85-2.57 0-5.08-.28-7.5-.81 15.62-3.441 27.34-17.395 27.34-34.04v-162.156c0-1.861-.69-3.641-1.9-4.991l7.23-2.191c2.27-.69 4.74-.26 6.64 1.16 1.91 1.41 3.03 3.641 3.03 6.022z" fill="#6957a1"/><g><g><path d="m324.667 476.18c-4.14 0-7.496 3.357-7.496 7.498s3.356 7.498 7.496 7.498 7.496-3.357 7.496-7.498-3.356-7.498-7.496-7.498z" fill="#f77a49"/></g></g><g><path d="m511.986 236.551v219.933l-20 5.362-54.64 14.644-74.64-20.006v-219.933c0-12.834 10.44-23.267 23.26-23.267h102.76c12.83.001 23.26 10.434 23.26 23.267z" fill="#6f7f8f"/><path d="m511.986 236.551v219.933l-20 5.362v-225.295c0-12.854-10.41-23.267-23.26-23.267h20c12.83.001 23.26 10.434 23.26 23.267z" fill="#57616c"/><path d="m511.986 456.484v48.014c0 4.141-3.35 7.502-7.5 7.502h-134.28c-4.14 0-7.5-3.361-7.5-7.502v-48.014z" fill="#a6dff5"/><path d="m511.986 456.484v48.014c0 4.141-3.35 7.502-7.5 7.502h-20c4.15 0 7.5-3.361 7.5-7.502v-48.014z" fill="#54c9eb"/><g><g><path d="m481.396 287.296c0 24.297-19.76 44.053-44.05 44.053-3.44 0-6.78-.4-9.99-1.15-19.49-4.531-34.05-22.046-34.05-42.902s14.56-38.381 34.05-42.912c3.21-.75 6.55-1.15 9.99-1.15 24.29-.002 44.05 19.764 44.05 44.061z" fill="#3a4b56"/><g fill="#253235"><path d="m481.396 287.296c0 24.297-19.76 44.053-44.05 44.053-3.44 0-6.78-.4-9.99-1.15 19.48-4.541 34.04-22.046 34.04-42.902s-14.56-38.371-34.04-42.912c3.21-.75 6.55-1.15 9.99-1.15 24.29-.002 44.05 19.764 44.05 44.061z"/><path d="m444.846 287.296c0-4.141-3.356-7.498-7.496-7.498s-7.496 3.357-7.496 7.498 3.356 7.498 7.496 7.498 7.496-3.357 7.496-7.498z"/></g></g><g><path d="m481.394 390.423c0 24.297-19.76 44.053-44.05 44.053-3.44 0-6.78-.4-9.99-1.15-19.49-4.531-34.05-22.046-34.05-42.902s14.56-38.381 34.05-42.912c3.21-.75 6.55-1.15 9.99-1.15 24.29-.002 44.05 19.764 44.05 44.061z" fill="#3a4b56"/><g fill="#253235"><path d="m481.394 390.423c0 24.297-19.76 44.053-44.05 44.053-3.44 0-6.78-.4-9.99-1.15 19.48-4.541 34.04-22.046 34.04-42.902s-14.56-38.371-34.04-42.912c3.21-.75 6.55-1.15 9.99-1.15 24.29-.002 44.05 19.764 44.05 44.061z"/><path d="m444.844 390.423c0-4.141-3.356-7.498-7.496-7.498s-7.496 3.357-7.496 7.498 3.356 7.498 7.496 7.498 7.496-3.357 7.496-7.498z"/></g></g></g></g><g><path d="m149.29 236.551v219.933l-20 5.362-54.64 14.644-74.64-20.006v-219.933c0-12.834 10.44-23.267 23.26-23.267h102.76c12.83.001 23.26 10.434 23.26 23.267z" fill="#6f7f8f"/><path d="m149.29 236.551v219.933l-20 5.362v-225.295c0-12.854-10.41-23.267-23.26-23.267h20c12.83.001 23.26 10.434 23.26 23.267z" fill="#57616c"/><path d="m149.29 456.484v48.014c0 4.141-3.35 7.502-7.5 7.502h-134.279c-4.14 0-7.5-3.361-7.5-7.502v-48.014z" fill="#a6dff5"/><path d="m149.29 456.484v48.014c0 4.141-3.35 7.502-7.5 7.502h-20c4.15 0 7.5-3.361 7.5-7.502v-48.014z" fill="#54c9eb"/><g><g><path d="m118.7 287.296c0 24.297-19.76 44.053-44.05 44.053-3.44 0-6.78-.4-9.99-1.15-19.49-4.531-34.05-22.046-34.05-42.902s14.56-38.381 34.05-42.912c3.21-.75 6.55-1.15 9.99-1.15 24.29-.002 44.05 19.764 44.05 44.061z" fill="#3a4b56"/><g fill="#253235"><path d="m118.7 287.296c0 24.297-19.76 44.053-44.05 44.053-3.44 0-6.78-.4-9.99-1.15 19.48-4.541 34.04-22.046 34.04-42.902s-14.56-38.371-34.04-42.912c3.21-.75 6.55-1.15 9.99-1.15 24.29-.002 44.05 19.764 44.05 44.061z"/><path d="m82.15 287.296c0-4.141-3.356-7.498-7.496-7.498s-7.496 3.357-7.496 7.498 3.356 7.498 7.496 7.498 7.496-3.357 7.496-7.498z"/></g></g><g><path d="m118.699 390.423c0 24.297-19.76 44.053-44.05 44.053-3.44 0-6.78-.4-9.99-1.15-19.49-4.531-34.05-22.046-34.05-42.902s14.56-38.381 34.05-42.912c3.21-.75 6.55-1.15 9.99-1.15 24.29-.002 44.05 19.764 44.05 44.061z" fill="#3a4b56"/><g fill="#253235"><path d="m118.699 390.423c0 24.297-19.76 44.053-44.05 44.053-3.44 0-6.78-.4-9.99-1.15 19.48-4.541 34.04-22.046 34.04-42.902s-14.56-38.371-34.04-42.912c3.21-.75 6.55-1.15 9.99-1.15 24.29-.002 44.05 19.764 44.05 44.061z"/><path d="m82.149 390.423c0-4.141-3.356-7.498-7.496-7.498s-7.496 3.357-7.496 7.498 3.356 7.498 7.496 7.498 7.496-3.357 7.496-7.498z"/></g></g></g></g></g><g><g><path d="m297.75 41.562v82.193c0 2.691-1.43 5.172-3.76 6.512-1.16.66-2.45.99-3.74.99-1.3 0-2.61-.34-3.78-1.02l-9.12-5.331-21.35-12.474-30.47 17.805c-2.32 1.36-5.19 1.37-7.52.03s-3.76-3.821-3.76-6.512v-82.393l63.1.15z" fill="#f77a49"/><path d="m94.49 34.47v86.465c0 3.201-2.03 6.052-5.06 7.092-.8.28-1.62.41-2.44.41-2.27 0-4.47-1.03-5.92-2.891l-6.83-8.773-16.04-20.616-18.41 12.914c-2.29 1.61-5.28 1.801-7.77.51-2.48-1.29-4.04-3.851-4.04-6.652v-79.402l46.26 7.612z" fill="#ffba4c"/><path d="m192.99 42.862-31.05 101.099c-.97 3.151-3.88 5.302-7.17 5.302h-.03c-3.31-.01-6.21-2.181-7.16-5.352l-31.05-104 44.72 1.73z" fill="#a6dff5"/></g><path d="m297.75 41.562v82.193c0 2.691-1.43 5.172-3.76 6.512-1.16.66-2.45.99-3.74.99-1.3 0-2.61-.34-3.78-1.02l-9.12-5.331v-83.394z" fill="#de4f42"/><path d="m192.99 42.862-31.05 101.099c-.97 3.151-3.88 5.302-7.17 5.302l6.48-107.621z" fill="#54c9eb"/><path d="m94.49 34.47v86.465c0 3.201-2.03 6.052-5.06 7.092-.8.28-1.62.41-2.44.41-2.27 0-4.47-1.03-5.92-2.891l-6.83-8.773v-85.634z" fill="#fb963f"/><g><path d="m484.019 23.527v79.403c0 2.801-1.56 5.362-4.04 6.652-2.49 1.29-5.48 1.1-7.77-.51l-6.68-4.681-11.73-8.232-22.87 29.388c-1.45 1.861-3.65 2.891-5.92 2.891-.82 0-1.64-.13-2.44-.41-3.03-1.04-5.06-3.891-5.06-7.092v-86.466l48.02-7.902z" fill="#ffba4c"/><path d="m395.47 39.911-31.05 104c-.95 3.171-3.85 5.341-7.16 5.352h-.03c-3.29 0-6.2-2.151-7.17-5.302l-31.05-101.099 44.09-1.701z" fill="#a6dff5"/></g><path d="m484.019 23.527v79.403c0 2.801-1.56 5.362-4.04 6.652-2.49 1.29-5.48 1.1-7.77-.51l-6.68-4.681v-77.823z" fill="#fb963f"/><path d="m395.47 39.911-31.05 104c-.95 3.171-3.85 5.341-7.16 5.352h-.03l5.87-108.101z" fill="#54c9eb"/><path d="m511.94 8.445c.521-4.111-2.389-7.865-6.499-8.385-4.113-.52-7.862 2.39-8.382 6.5-.01.081-2.068 8.238-39.659 15.516-41.057 7.949-108.818 11.979-201.4 11.979-92.583 0-160.344-4.03-201.4-11.979-37.591-7.277-39.649-15.435-39.659-15.515-.52-4.111-4.277-7.015-8.382-6.501-4.109.52-7.019 4.274-6.499 8.384 2.205 17.436 31.136 40.616 255.94 40.616 224.803 0 253.734-23.18 255.94-40.615" fill="#98654c"/></g><g><path d="m468.546 170.284-12.303-25.712c-1.789-3.737-6.267-5.318-10.003-3.528-3.736 1.789-5.315 6.268-3.527 10.006l12.303 25.712c1.289 2.693 3.973 4.265 6.77 4.265 1.085 0 2.188-.237 3.232-.737 3.737-1.789 5.316-6.268 3.528-10.006z" fill="#a6dff5"/><path d="m281.682 179.327-24.667-14.254c-3.586-2.072-8.174-.845-10.246 2.743-2.072 3.587-.844 8.176 2.743 10.249l24.667 14.254c1.182.683 2.471 1.008 3.745 1.008 2.591 0 5.112-1.345 6.501-3.751 2.072-3.588.844-8.177-2.743-10.249z" fill="#ffc54b"/><path d="m45.333 130.364c-3.495-2.226-8.13-1.197-10.354 2.299l-15.305 24.043c-2.225 3.495-1.196 8.132 2.298 10.357 1.249.796 2.643 1.175 4.021 1.175 2.478 0 4.904-1.228 6.333-3.474l15.305-24.043c2.225-3.494 1.196-8.132-2.298-10.357z" fill="#ffc54b"/><path d="m208.211 208.308c-3.283-2.527-7.992-1.914-10.518 1.37l-12.97 16.858c-2.526 3.284-1.913 7.994 1.37 10.521 1.363 1.049 2.972 1.557 4.569 1.557 2.248 0 4.472-1.007 5.949-2.927l12.97-16.858c2.525-3.283 1.912-7.994-1.37-10.521z" fill="#a6dff5"/><g fill="#f77a49"><path d="m112.244 154.126c-4.14 0-7.496 3.357-7.496 7.498s3.356 7.498 7.496 7.498 7.496-3.357 7.496-7.498-3.356-7.498-7.496-7.498z"/><path d="m256.004 227.317c-4.14 0-7.496 3.357-7.496 7.498s3.356 7.498 7.496 7.498 7.496-3.357 7.496-7.498-3.356-7.498-7.496-7.498z"/><path d="m375.227 169.174c-4.14 0-7.496 3.357-7.496 7.498s3.356 7.498 7.496 7.498 7.496-3.357 7.496-7.498-3.356-7.498-7.496-7.498z"/></g></g></g></svg>