<svg id="Capa_1" enable-background="new 0 0 512 512" height="512" viewBox="0 0 512 512" width="512" xmlns="http://www.w3.org/2000/svg"><path d="m497 512h-140c-8.284 0-15-6.716-15-15v-10c0-46.869 38.131-85 85-85s85 38.131 85 85v10c0 8.284-6.716 15-15 15z" fill="#fff064"/><path d="m497 512c8.284 0 15-6.716 15-15v-10c0-46.869-38.131-85-85-85v110z" fill="#ffdc1e"/><path d="m427 432c-33.084 0-60-26.916-60-60s26.916-60 60-60 60 26.916 60 60-26.917 60-60 60z" fill="#ffd0af"/><path d="m427 312v120c33.084 0 60-26.916 60-60s-26.916-60-60-60z" fill="#fabe8c"/><path d="m155 200h-140c-8.284 0-15-6.716-15-15v-10c0-46.869 38.131-85 85-85s85 38.131 85 85v10c0 8.284-6.716 15-15 15z" fill="#00afff"/><path d="m155 200c8.284 0 15-6.716 15-15v-10c0-46.869-38.131-85-85-85v110z" fill="#008cfa"/><path d="m85 120c-33.084 0-60-26.916-60-60s26.916-60 60-60 60 26.916 60 60-26.917 60-60 60z" fill="#ffd0af"/><path d="m85 0v120c33.084 0 60-26.916 60-60s-26.916-60-60-60z" fill="#fabe8c"/><path d="m497 200h-140c-8.284 0-15-6.716-15-15v-10c0-46.869 38.131-85 85-85s85 38.131 85 85v10c0 8.284-6.716 15-15 15z" fill="#64e6e6"/><path d="m497 200c8.284 0 15-6.716 15-15v-10c0-46.869-38.131-85-85-85v110z" fill="#00cdcd"/><path d="m427 120c-33.084 0-60-26.916-60-60s26.916-60 60-60 60 26.916 60 60-26.917 60-60 60z" fill="#ffd0af"/><path d="m427 0v120c33.084 0 60-26.916 60-60s-26.916-60-60-60z" fill="#fabe8c"/><path d="m220.009 341.47c-.046.058.062-.043.009.009l-160.27 160.27c-13.668 13.668-35.829 13.668-49.497 0-13.668-13.668-13.668-35.829 0-49.497l160.27-160.27z" fill="#c8e1f5"/><path d="m59.748 501.749 160.27-160.269c.053-.053-.055.049-.009-.009l-24.74-24.74-185.018 185.018c13.668 13.668 35.829 13.668 49.497 0z" fill="#aacde6"/><circle cx="256" cy="256" fill="#e1f5ff" r="120"/><path d="m171.147 340.853c21.716 21.715 51.716 35.147 84.853 35.147 66.274 0 120-53.726 120-120 0-33.137-13.431-63.137-35.147-84.853z" fill="#c8e1f5"/><path d="m256 376c32.51 0 61.995-12.934 83.606-33.93-3.096-17.519-11.589-33.608-24.571-46.179-15.91-15.406-36.874-23.891-59.03-23.891h-.005c-22.156 0-43.12 8.485-59.03 23.891-12.983 12.572-21.477 28.662-24.572 46.183 21.61 20.994 51.094 33.926 83.602 33.926z" fill="#ff823c"/><path d="m172.398 342.074c21.61 20.993 51.094 33.926 83.602 33.926 32.51 0 61.995-12.934 83.606-33.93-3.096-17.519-11.589-33.608-24.571-46.179-15.91-15.406-36.874-23.891-59.03-23.891h-.005c-6.09 0-12.084.664-17.913 1.913l-65.071 65.071c-.221 1.026-.435 2.054-.618 3.09z" fill="#f06923"/><path d="m121 256c0-74.439 60.561-135 135-135s135 60.561 135 135-60.561 135-135 135-135-60.561-135-135zm30 0c0 57.897 47.103 105 105 105s105-47.103 105-105-47.103-105-105-105-105 47.103-105 105z" fill="#556e87"/><path d="m330.211 181.789c19.013 19.013 30.789 45.263 30.789 74.211 0 57.897-47.103 105-105 105-28.948 0-55.198-11.776-74.211-30.789l-21.203 21.203c24.444 24.446 58.194 39.586 95.414 39.586 74.439 0 135-60.561 135-135 0-37.22-15.14-70.97-39.585-95.415z" fill="#435569"/><path d="m213.574 199.574c23.394-23.394 61.459-23.394 84.853 0s23.394 61.459 0 84.853-61.459 23.394-84.853 0-23.394-61.46 0-84.853z" fill="#ffd0af"/><path d="m221.161 290.839c23.422 16.725 56.256 14.597 77.265-6.412s23.138-53.844 6.412-77.265z" fill="#fabe8c"/></svg>