<svg xmlns="http://www.w3.org/2000/svg" width="37.209" height="26.131" viewBox="0 0 37.209 26.131">
  <g id="rickshaw" transform="translate(0 -76.221)">
    <circle id="Ellipse_172" data-name="Ellipse 172" cx="2.818" cy="2.818" r="2.818" transform="translate(27.923 96.715)" fill="#303e48"/>
    <circle id="Ellipse_173" data-name="Ellipse 173" cx="1.723" cy="1.723" r="1.723" transform="translate(29.018 97.81)" fill="#e6e6e6"/>
    <circle id="Ellipse_174" data-name="Ellipse 174" cx="0.594" cy="0.594" r="0.594" transform="translate(30.147 98.939)" fill="#d1d1d1"/>
    <path id="Path_1736" data-name="Path 1736" d="M389.357,317.632a4.837,4.837,0,0,1,5.359,3.868.791.791,0,0,1-.768.938h-6.521" transform="translate(-359.272 -223.831)" fill="#ffb04c"/>
    <circle id="Ellipse_175" data-name="Ellipse 175" cx="2.818" cy="2.818" r="2.818" transform="translate(1.982 96.715)" fill="#303e48"/>
    <circle id="Ellipse_176" data-name="Ellipse 176" cx="1.723" cy="1.723" r="1.723" transform="translate(3.077 97.81)" fill="#e6e6e6"/>
    <circle id="Ellipse_177" data-name="Ellipse 177" cx="0.594" cy="0.594" r="0.594" transform="translate(4.206 98.939)" fill="#d1d1d1"/>
    <rect id="Rectangle_4492" data-name="Rectangle 4492" width="4.429" height="6.281" transform="translate(17.441 90.876)" fill="#fa6657"/>
    <rect id="Rectangle_4493" data-name="Rectangle 4493" width="4.429" height="1.51" transform="translate(17.441 90.876)" fill="#f44a46"/>
    <path id="Path_1737" data-name="Path 1737" d="M236.111,251.278h-4.429v-2.416h4.429a1.208,1.208,0,0,1,1.208,1.208h0A1.208,1.208,0,0,1,236.111,251.278Z" transform="translate(-214.845 -160.095)" fill="#303e48"/>
    <rect id="Rectangle_4494" data-name="Rectangle 4494" width="1.208" height="17.796" transform="translate(16.234 78.636)" fill="#e6e6e6"/>
    <path id="Path_1738" data-name="Path 1738" d="M420.021,280.121H421a.781.781,0,0,0,.781-.781v-1.513a.781.781,0,0,0-.781-.781h-.984a1.537,1.537,0,0,0-1.537,1.537h0A1.537,1.537,0,0,0,420.021,280.121Z" transform="translate(-388.071 -186.231)" fill="#ffb04c"/>
    <g id="Group_23778" data-name="Group 23778" transform="translate(34.969 89.421)">
      <path id="Path_1739" data-name="Path 1739" d="M483.845,289.672h-.951a.6.6,0,1,1,0-1.208h.951a.6.6,0,1,1,0,1.208Z" transform="translate(-482.209 -286.24)" fill="#fa6657"/>
      <path id="Path_1740" data-name="Path 1740" d="M481.782,259.424a.6.6,0,0,1-.225-1.165l.883-.355a.6.6,0,1,1,.45,1.121l-.883.355A.6.6,0,0,1,481.782,259.424Z" transform="translate(-481.178 -257.861)" fill="#fa6657"/>
      <path id="Path_1741" data-name="Path 1741" d="M482.712,314.523a.6.6,0,0,1-.237-.049l-.875-.373a.6.6,0,0,1,.474-1.111l.875.374a.6.6,0,0,1-.237,1.16Z" transform="translate(-481.229 -308.938)" fill="#fa6657"/>
    </g>
    <path id="Path_1742" data-name="Path 1742" d="M41.1,78.637a2.417,2.417,0,0,0,2.355-1.877.446.446,0,0,0-.44-.539H18.822A5.442,5.442,0,0,0,13.4,81.647v6.806a2.841,2.841,0,0,0,4.9,1.954l2.023-2.135V81.067a2.43,2.43,0,0,1,2.43-2.43h14.32v7.811l3.019.644,2.9-.644a20.052,20.052,0,0,0-2.586-7.811Z" transform="translate(-12.422)" fill="#303e48"/>
    <path id="Path_1743" data-name="Path 1743" d="M342.5,109.462h-3.334v2.174h4.409A15.49,15.49,0,0,0,342.5,109.462Z" transform="translate(-314.518 -30.825)" fill="#162630"/>
    <path id="Path_1744" data-name="Path 1744" d="M357.35,133.062a14.487,14.487,0,0,0-1.535-4.333.44.44,0,0,0-.391-.238l-1.124,0a.441.441,0,0,0-.443.441v4.2a.441.441,0,0,0,.441.441l2.615,0A.442.442,0,0,0,357.35,133.062Z" transform="translate(-328.142 -48.468)" fill="#e6e6e6"/>
    <path id="Path_1745" data-name="Path 1745" d="M37.071,216.944v9.985H24.509V222a3.232,3.232,0,0,0-3.26-3.2H13.4V229.1H40.578a19.743,19.743,0,0,0,2.545-9.813,20.92,20.92,0,0,0-.132-2.346Z" transform="translate(-12.422 -130.496)" fill="#ffdb6c"/>
    <path id="Path_1746" data-name="Path 1746" d="M390.144,317.6c-.057,0-.113,0-.17,0a4.876,4.876,0,0,0-.616.039l-1.929,4.806h.958A19.736,19.736,0,0,0,390.144,317.6Z" transform="translate(-359.273 -223.831)" fill="#e89b46"/>
    <g id="Group_23779" data-name="Group 23779" transform="translate(0.974 86.448)">
      <path id="Path_1747" data-name="Path 1747" d="M345.212,218.8c-.015-.644-.056-1.251-.125-1.852h-5.921V218.8Z" transform="translate(-315.491 -216.944)" fill="#ffb04c"/>
      <path id="Path_1748" data-name="Path 1748" d="M24.206,244.281a3.27,3.27,0,0,0-2.957-1.852H13.4v1.852Z" transform="translate(-13.396 -240.577)" fill="#ffb04c"/>
    </g>
    <path id="Path_1749" data-name="Path 1749" d="M359.97,238.164h-.718a.6.6,0,0,1,0-1.208h.718a.6.6,0,0,1,0,1.208Z" transform="translate(-332.584 -149.054)" fill="#fa6657"/>
    <path id="Path_1750" data-name="Path 1750" d="M.526,322.439a.536.536,0,0,1-.522-.6,4.832,4.832,0,0,1,9.628.6H.526Z" transform="translate(0 -223.831)" fill="#ffb04c"/>
  </g>
</svg>
