<svg id="Layer_1" enable-background="new 0 0 510 510" height="512" viewBox="0 0 510 510" width="512" xmlns="http://www.w3.org/2000/svg"><g><g><path d="m510 255c0-140.833-114.167-255-255-255-98.131 0-158.574 55.347-158.741 55.441-3.787 17.481-10.374 42.85-10.374 61.465 0 140.833 118.763 254.972 259.596 254.972 60.017 0 115.159-27.944 158.719-62.639.177-1.087 5.8-23.477 5.8-54.239z" fill="#9dc63d"/><path d="m345.459 364.679c-140.833 0-255-114.167-255-255 0-18.615 2.013-36.757 5.8-54.239-.006.005-.011.01-.017.014-58.645 46.721-96.242 118.738-96.242 199.546 0 69.269 27.62 132.088 72.447 178.043l76.975 54.142c32.171 14.653 67.921 22.815 105.578 22.815 121.17 0 224.116-84.98 249.2-200.761-43.56 34.695-98.725 55.44-158.741 55.44z" fill="#7dbe3b"/></g><g><g><path d="m257.907 198.148c-.87.031-1.738.066-2.615.066-39.987 0-72.519-32.531-72.519-72.519 0-20.883 8.87-48.093 22.596-69.319 14.764-22.831 32.96-35.925 49.922-35.925.868 0 1.741.043 2.615.111v-20.497c-.867-.041-1.738-.065-2.614-.065-53.048 0-92.971 76.252-92.971 125.696 0 51.264 41.706 92.97 92.971 92.97.875 0 1.746-.015 2.615-.039z" fill="#fff"/></g><g><path d="m398.597 290.782c-5.648 0-10.226-4.578-10.226-10.226v-127.025c0-73.38-59.699-133.079-133.079-133.079-5.648 0-10.226-4.578-10.226-10.226s4.579-10.226 10.227-10.226c84.657 0 153.53 68.874 153.53 153.531v127.025c0 5.647-4.578 10.226-10.226 10.226z" fill="#fff"/></g><g><path d="m111.987 290.782c-5.648 0-10.226-4.578-10.226-10.226v-127.025c0-84.657 68.874-153.531 153.531-153.531 5.648 0 10.226 4.578 10.226 10.226s-4.578 10.226-10.226 10.226c-73.38 0-133.079 59.699-133.079 133.079v127.025c0 5.647-4.578 10.226-10.226 10.226z" fill="#ffebb4"/></g><g><path d="m118.536 324.208h-13.559c-.684 0-1.361.028-2.034.07v135.419c14.401 10.719 29.966 19.959 46.482 27.481 1.051-3.198 1.628-6.61 1.628-10.16v-120.293c0-17.958-14.559-32.517-32.517-32.517z" fill="#df751c"/><path d="m104.977 324.208c-17.959 0-32.517 14.558-32.517 32.517v76.305c9.742 9.987 20.293 19.177 31.552 27.464v-103.77c0-14.836 9.94-27.342 23.52-31.246-2.858-.822-5.874-1.271-8.997-1.271h-13.558z" fill="#dd542e"/><g><path d="m126.871 246.107h-29.768c-13.61 0-24.644 11.033-24.644 24.644v19.611c0 13.61 11.033 24.644 24.644 24.644h29.768c13.61 0 24.644-11.033 24.644-24.644v-19.612c0-13.61-11.033-24.643-24.644-24.643z" fill="#dd542e"/></g><g><path d="m102.943 309.348h40.366v24.54h-40.366z" fill="#ffc305"/></g><g><path d="m81.835 309.348h24.54v24.54h-24.54z" fill="#ffa50a"/></g></g><g><g><path d="m404.561 324.208h-13.559c-.911 0-1.81.047-2.702.121v185.086c.892.073 1.791.121 2.702.121h13.559c17.959 0 32.517-14.558 32.517-32.517v-120.294c0-17.958-14.558-32.517-32.517-32.517z" fill="#df751c"/></g><g><path d="m390.037 477.019v-120.294c0-14.836 9.94-27.342 23.52-31.246-2.858-.822-5.874-1.271-8.997-1.271h-13.559c-17.959 0-32.517 14.558-32.517 32.517v120.294c0 17.959 14.558 32.517 32.517 32.517h13.559c3.123 0 6.138-.449 8.997-1.271-13.58-3.904-23.52-16.41-23.52-31.246z" fill="#dd542e"/></g><g><path d="m412.897 246.107h-29.768c-13.61 0-24.644 11.033-24.644 24.644v19.611c0 13.61 11.033 24.644 24.644 24.644h29.768c13.61 0 24.644-11.033 24.644-24.644v-19.612c-.001-13.61-11.034-24.643-24.644-24.643z" fill="#dd542e"/></g><g><path d="m386.021 309.348h43.313v24.54h-43.313z" fill="#ffc305"/></g><g><path d="m367.86 309.348h24.54v24.54h-24.54z" fill="#ffa50a"/></g></g><g><path d="m255.292 218.666c-5.648 0-10.226-4.578-10.226-10.226s4.578-10.226 10.226-10.226c39.987 0 72.519-32.532 72.519-72.519 0-20.883-8.87-48.093-22.596-69.319-14.765-22.831-32.96-35.925-49.923-35.925-5.648 0-10.226-4.578-10.226-10.226s4.578-10.225 10.226-10.225c53.048 0 92.971 76.252 92.971 125.696 0 51.264-41.707 92.97-92.971 92.97z" fill="#ffebb4"/></g></g></g></svg>